<svg xmlns="http://www.w3.org/2000/svg" viewBox="0 0 400 400" fill="none">
  <rect width="400" height="400" rx="16" fill="#1a1d24"/>
  <rect x="40" y="60" width="90" height="90" rx="8" fill="#2a2f3a"/>
  <rect x="150" y="40" width="110" height="110" rx="8" fill="#2a2f3a"/>
  <rect x="280" y="70" width="80" height="80" rx="8" fill="#2a2f3a"/>
  <rect x="60" y="180" width="100" height="100" rx="8" fill="#2a2f3a"/>
  <rect x="190" y="170" width="120" height="120" rx="8" fill="#2a2f3a"/>
  <rect x="50" y="300" width="85" height="70" rx="8" fill="#2a2f3a"/>
  <rect x="160" y="310" width="95" height="60" rx="8" fill="#2a2f3a"/>
  <rect x="280" y="290" width="90" height="80" rx="8" fill="#2a2f3a"/>
  <rect x="85" y="95" width="50" height="20" rx="4" fill="#e63946" opacity="0.9"/>
  <rect x="195" y="75" width="70" height="30" rx="4" fill="#e63946" opacity="0.85"/>
  <rect x="305" y="100" width="40" height="20" rx="4" fill="#e63946" opacity="0.8"/>
  <rect x="90" y="220" width="60" height="25" rx="4" fill="#e63946" opacity="0.9"/>
  <rect x="220" y="210" width="55" height="35" rx="4" fill="#e63946" opacity="0.85"/>
  <rect x="75" y="325" width="45" height="18" rx="4" fill="#e63946" opacity="0.75"/>
  <rect x="300" y="315" width="50" height="22" rx="4" fill="#e63946" opacity="0.8"/>
</svg>
